HIERARCHY
ROOT Hips
{
  OFFSET 279.157 85.6768 304.565
  CHANNELS 6 Xposition Yposition Zposition Zrotation Xrotation Yrotation
  JOINT LeftUpLeg
  {
    OFFSET 8.64259 1.95398 -2.38835
    CHANNELS 3 Zrotation Xrotation Yrotation
    JOINT LeftLeg
    {
      OFFSET 43.7702 0 0
      CHANNELS 3 Zrotation Xrotation Yrotation
      JOINT LeftFoot
      {
        OFFSET 40.6238 0 0
        CHANNELS 3 Zrotation Xrotation Yrotation
        JOINT LeftToeBase
        {
          OFFSET 12.7242 0 0
          CHANNELS 3 Zrotation Xrotation Yrotation
          End Site
          {
            OFFSET 0 0 0
          }
        }
      }
    }
  }
  JOINT RightUpLeg
  {
    OFFSET -8.2249 1.95398 -2.59336
    CHANNELS 3 Zrotation Xrotation Yrotation
    JOINT RightLeg
    {
      OFFSET 43.5653 0 0
      CHANNELS 3 Zrotation Xrotation Yrotation
      JOINT RightFoot
      {
        OFFSET 40.6238 0 0
        CHANNELS 3 Zrotation Xrotation Yrotation
        JOINT RightToeBase
        {
          OFFSET 12.7242 0 0
          CHANNELS 3 Zrotation Xrotation Yrotation
          End Site
          {
            OFFSET 0 0 0
          }
        }
      }
    }
  }
  JOINT Spine
  {
    OFFSET 0.165834 0.87714 6.61349
    CHANNELS 3 Zrotation Xrotation Yrotation
    JOINT Spine1
    {
      OFFSET 7.38963 1.71661e-005 0
      CHANNELS 3 Zrotation Xrotation Yrotation
      JOINT Spine2
      {
        OFFSET 11.9445 1.14441e-005 0
        CHANNELS 3 Zrotation Xrotation Yrotation
        JOINT Spine3
        {
          OFFSET 14.7254 4.19617e-005 0
          CHANNELS 3 Zrotation Xrotation Yrotation
          JOINT Spine4
          {
            OFFSET 10.9679 0 0
            CHANNELS 3 Zrotation Xrotation Yrotation
            JOINT RightShoulder
            {
              OFFSET 2.46616 -1.6653 3.69651
              CHANNELS 3 Zrotation Xrotation Yrotation
              JOINT RightArm
              {
                OFFSET 13.0012 0 0
                CHANNELS 3 Zrotation Xrotation Yrotation
                JOINT RightForeArm
                {
                  OFFSET 28.7848 1.52588e-005 0
                  CHANNELS 3 Zrotation Xrotation Yrotation
                  JOINT RightHand
                  {
                    OFFSET 26.5688 1.52588e-005 0
                    CHANNELS 3 Zrotation Xrotation Yrotation
                    End Site
                    {
                      OFFSET 0 0 0
                    }
                  }
                }
              }
            }
            JOINT LeftShoulder
            {
              OFFSET 2.38034 -1.29275 -3.7523
              CHANNELS 3 Zrotation Xrotation Yrotation
              JOINT LeftArm
              {
                OFFSET 16.3182 6.10351e-005 0
                CHANNELS 3 Zrotation Xrotation Yrotation
                JOINT LeftForeArm
                {
                  OFFSET 27.0901 0 0
                  CHANNELS 3 Zrotation Xrotation Yrotation
                  JOINT LeftHand
                  {
                    OFFSET 24.5451 1.52588e-005 0
                    CHANNELS 3 Zrotation Xrotation Yrotation
                    End Site
                    {
                      OFFSET 0 0 0
                    }
                  }
                }
              }
            }
            JOINT Neck
            {
              OFFSET 5.0226 -0.0266342 0
              CHANNELS 3 Zrotation Xrotation Yrotation
              JOINT Head
              {
                OFFSET 6.69364 2.86102e-005 0
                CHANNELS 3 Zrotation Xrotation Yrotation
                End Site
                {
                  OFFSET 0 0 0
                }
              }
            }
          }
        }
      }
    }
  }
}
MOTION
Frames:	14
Frame Time:	0.0416667
-66.0838 99.4655 81.1137 -102.995 -44.5231 -99.5187 -174.391 5.96861 90.163 -28.8101 14.6172 0.338515 72.6535 7.64454 -2.98306 18.5905 -7.72126 6.11197 171.744 5.11378 85.9095 -55.4432 -19.395 -1.96387 60.3535 -0.246971 0.291305 28.6684 -0.2546 2.25513 1.11781 8.20942 -89.8382 10.4554 2.30092 0.118193 -1.2135 2.30386 0.0167594 -23.7635 2.15895 0.804562 -3.75084 2.15896 0.804573 88.5967 -30.0642 -109.501 32.3645 -6.32724 -9.20866 0.38245 -22.4229 -18.0227 -28.3907 -0.546307 -7.76989 -86.1993 -49.4479 84.3479 -26.7735 7.19076 17.7113 2.36437 14.8635 -14.1652 4.0997 -0.0192852 -3.10978 -1.0286 -5.52003 -11.9026 -2.14843 -3.90528 -3.14492 
-62.3042 98.7084 76.6507 -101.307 -44.7983 -98.8734 -176.507 11.6121 88.7824 -29.9713 13.09 1.2702 71.6054 6.67685 -4.19935 15.0736 -11.5454 9.85844 175.676 -2.15978 85.5106 -51.3523 -35.9039 -8.25125 62.9347 -1.92744 0.693865 32.3613 -1.45284 2.49363 1.62115 8.01135 -89.8701 10.8555 3.28791 -0.0491166 -0.811262 3.28255 -0.193939 -23.3779 3.15049 0.942307 -3.36525 3.15051 0.942309 87.6941 -29.7399 -111.414 30.7859 -7.45245 -11.766 0.215031 -23.7234 -18.3542 -26.3123 -0.547793 -8.29989 -84.9015 -50.1833 86.4093 -31.3725 5.55058 21.1046 2.80485 11.4929 -15.8314 0.902364 -0.101104 -4.87978 0.184395 -6.5463 -9.67049 -2.21452 -5.09516 -4.26175 
-57.6844 98.0354 69.8111 -98.4691 -44.8591 -97.2979 -178.283 18.011 88.7725 -26.9625 13.327 1.93667 63.9406 2.00662 -3.80334 16.4923 -9.97241 8.40014 179.372 -4.60717 86.5842 -44.8292 -42.0751 -13.7396 71.3634 -7.64876 -1.94011 34.2149 -2.23478 4.9453 1.95591 7.9641 -89.9711 10.9559 3.90742 -0.312547 -0.709222 3.88986 -0.484476 -23.2902 3.82042 0.878024 -3.27754 3.82042 0.878023 87.8106 -27.6655 -112.147 30.7775 -9.33656 -17.794 1.34867 -20.2501 -17.2487 -25.4286 -0.261405 -8.81888 -83.9704 -52.9209 88.114 -33.0034 4.97964 19.7268 2.3722 8.88166 -14.3942 -0.825068 -0.120307 -6.47578 3.44366 -6.11282 -2.86857 -3.05632 -5.47904 -6.95557 
-52.6486 97.635 61.3762 -96.549 -50.5823 -96.199 -178.14 20.2246 89.3131 -15.4784 22.0007 0.544781 61.4287 1.27318 -1.60246 22.5292 -6.77576 10.7745 178.37 1.07462 89.4753 -41.941 -37.3059 -9.8434 77.615 -11.3823 -2.02402 30.0363 -0.859961 3.77663 1.79191 8.24972 -90.1501 10.3884 3.50097 -0.606397 -1.27809 3.47086 -0.760072 -23.8508 3.52115 0.475155 -3.83817 3.52115 0.475152 86.9477 -26.9681 -114.226 28.346 -10.6651 -23.7844 1.89053 -17.3322 -17.573 -25.2905 0.0179764 -9.40358 -83.6251 -53.7032 88.6973 -32.9011 5.08121 16.2133 3.13249 6.99837 -16.2543 0.810571 -0.172736 -7.22498 10.4337 -4.19727 4.20344 -3.85352 -4.94741 -8.03469 
-49.4157 98.7057 54.4101 -93.1176 -62.0677 -94.3495 -175.886 20.94 87.7556 -8.43533 -6.74232 -3.44262 63.3363 3.1859 -3.50133 22.9116 -6.3931 10.4016 175.505 4.9098 88.5601 -34.2399 -30.4851 -4.30668 76.991 -11.1307 -3.20227 26.2245 0.490805 2.5289 1.5936 8.19958 -90.1996 10.4865 3.0827 -0.670241 -1.18101 3.05023 -0.805391 -23.7455 3.14149 0.288156 -3.73287 3.14148 0.288146 86.4018 -28.382 -114.606 29.1692 -12.7053 -23.8248 2.43074 -16.7018 -17.3286 -24.0875 -0.0454289 -9.06823 -83.9699 -50.9318 87.899 -32.3145 4.89862 13.1203 3.45266 4.83524 -16.9076 2.52103 -0.260222 -8.33962 14.1745 -2.14885 5.54326 -5.59099 -3.39093 -4.7704 
-47.3351 101.075 49.3322 -89.5756 -76.9245 -93.6834 -174.455 22.1597 84.7279 -22.3726 -13.3856 -4.26568 65.5928 2.92578 -1.50869 16.6003 -9.73091 7.96706 174.638 4.72216 88.1489 -24.091 -17.003 -2.25785 72.6321 -8.25137 -3.45274 23.4742 1.53133 1.67225 1.30277 8.03973 -89.9109 10.7989 2.63526 -0.0679425 -0.869331 2.62972 -0.183939 -23.4249 2.53376 0.727729 -3.4123 2.53376 0.727731 86.4079 -29.1601 -114.206 32.6503 -16.3274 -22.142 4.554 -21.2833 -14.2679 -21.8791 -0.118077 -10.5483 -84.1477 -47.6253 87.2453 -31.386 4.39188 10.9429 3.1543 1.84609 -16.8299 7.71113 -0.535092 -9.44105 14.0324 0.866938 5.91712 -6.13135 -0.604018 -2.63622 
-45.1704 101.821 46.2111 105.073 -87.6383 98.7396 -172.551 17.2136 86.6249 -31.9924 -0.952842 -3.54809 68.5407 5.90823 0.360051 14.2598 -10.6215 6.461 173.142 4.49016 86.1777 -21.0755 -3.1241 -1.18753 71.4986 -6.45665 -1.81152 22.4613 2.0553 0.696709 1.12662 7.92877 -89.5926 11.0106 2.43158 0.577812 -0.658152 2.45465 0.470165 -23.2072 2.14547 1.28218 -3.19458 2.14547 1.28217 87.2023 -29.6334 -112.423 37.2347 -19.1738 -18.054 3.07064 -19.9919 -18.4884 -20.624 0.0560136 -11.5267 -83.703 -46.2286 87.7747 -30.4744 2.86873 11.3993 5.49024 6.46944 -19.2658 7.37975 -0.319866 -7.06481 8.49341 5.36881 6.47224 -4.58268 3.88351 0.282275 
-41.5832 101.835 43.8 95.3535 -71.882 89.8397 -171.369 11.3662 93.1575 -27.7493 -10.3692 -1.85354 69.3639 6.98895 2.49533 9.27152 -13.3258 5.19323 171.113 2.31191 84.9393 -18.1152 8.57498 0.745281 69.2287 -5.26774 -0.609555 26.0032 1.1841 -1.47047 0.878675 7.73058 -89.6861 11.4105 1.89508 0.435218 -0.259156 1.91239 0.351351 -22.8028 1.67664 0.984779 -2.79012 1.67665 0.984777 87.2209 -30.7794 -111.868 40.6422 -17.7411 -11.8815 -0.681094 -16.5884 -27.4611 -22.2739 0.579773 -13.1462 -83.193 -46.6366 88.6256 -31.945 1.85557 14.4634 5.8502 8.85708 -18.3436 5.32031 -0.238976 -6.6755 0.488545 11.6706 8.28351 -3.16389 10.3145 5.04894 
-36.2556 101.434 40.349 94.3992 -53.1941 88.653 -170.303 8.59646 94.9232 -18.9736 -28.739 -2.91308 69.4731 7.42512 2.0073 10.2421 -12.3737 4.53462 167.97 1.20992 81.687 -19.7044 22.551 3.02925 67.3648 -3.45944 1.48893 28.9343 0.430254 -3.72267 0.635233 7.67133 -89.834 11.5307 1.34144 0.193146 -0.139583 1.34866 0.133899 -22.6794 1.22137 0.587434 -2.66678 1.22138 0.587443 87.6677 -30.9528 -110.928 42.2174 -11.3423 -8.84965 -2.60644 -19.1233 -31.1374 -24.6624 0.724016 -13.9176 -83.4707 -47.5632 88.2907 -33.5989 2.91643 14.946 4.44977 11.0475 -14.5297 1.2944 -0.139088 -5.88682 -4.08932 15.4784 11.1967 -4.04766 14.1073 7.43752 
-29.0935 100.464 35.1101 95.0238 -33.4887 87.5856 -169.256 8.4117 91.2778 -20.4077 -26.9795 -5.61408 67.9703 6.52788 0.0895647 13.6348 -10.0658 4.19107 163.809 -1.38037 75.6032 -23.0216 30.2863 4.72276 62.7431 0.35573 1.6697 31.6083 -0.0728727 -8.23834 0.674895 7.72136 -90.0126 11.4324 1.33698 -0.160502 -0.237841 1.32861 -0.219206 -22.7783 1.3234 0.248811 -2.76569 1.32338 0.248802 88.5291 -29.6577 -109.805 41.6081 -4.80968 -5.78544 -1.58749 -14.8504 -28.3322 -26.1383 1.11789 -13.9658 -84.187 -48.7597 87.3211 -33.815 4.12864 15.0977 3.43797 10.2378 -13.6071 -0.367479 -0.108009 -5.37473 -6.43082 14.3736 12.051 -3.27128 13.2436 7.38905 
-21.0379 99.5818 28.6759 96.0352 -17.2203 86.0415 -169.335 6.83426 85.1347 -23.93 -13.2179 -5.99376 71.8843 8.31406 -3.79866 14.4723 -10.0494 5.39394 162.093 -0.638513 69.1262 -32.2338 23.4489 1.05721 60.4838 2.54069 0.0903438 22.9714 2.13611 -1.88364 0.943424 7.76229 -89.9866 11.3517 1.88377 -0.161067 -0.317836 1.87485 -0.243852 -22.8638 1.84501 0.412724 -2.85119 1.84505 0.412734 90.2151 -29.663 -106.459 38.1461 -4.10873 -1.9135 -1.00207 -18.5883 -22.3262 -26.1391 0.412758 -11.6454 -85.0545 -49.028 86.0288 -33.4573 3.15536 15.2869 4.01722 9.88357 -14.1235 -2.47161 -0.101856 -6.66194 -3.3637 12.3651 8.21102 -4.47937 11.208 8.39256 
-15.2398 98.9028 23.2044 96.7696 -1.08281 84.0943 -172.559 5.04587 81.3895 -27.3175 -2.60039 -5.1263 77.1928 11.5166 -2.24275 11.2546 -12.2456 5.65877 172.398 1.29952 75.7725 -52.1623 -6.78669 -7.89799 64.2331 -2.29624 -3.32414 15.922 3.18342 5.26004 0.549553 7.85056 -90.1006 11.1755 1.04724 -0.302693 -0.495121 1.03291 -0.348492 -23.0334 1.08978 0.0260672 -3.02078 1.08981 0.0260719 90.2401 -28.757 -106.76 38.1895 -1.18822 1.93118 1.17329 -14.7082 -16.0086 -21.8716 -0.0127895 -9.05151 -85.6061 -51.8398 85.5791 -29.9613 4.21865 11.4355 2.77782 7.63008 -10.4554 -2.78277 -0.084315 -5.18238 -2.11436 11.9461 10.0754 -2.96233 10.5756 5.95018 
-10.3912 99.6463 19.7521 97.1061 14.1023 85.5479 -174.981 0.857305 82.5119 -24.7411 12.6304 -2.95481 77.2905 11.7206 -0.977811 9.50154 -13.0666 4.98607 -178.607 9.56587 86.69 -64.1812 -8.78671 -8.28769 68.7471 -6.0894 -5.61639 20.0143 1.95191 5.09795 -0.166449 7.96863 -90.1968 10.9359 -0.422218 -0.351444 -0.735064 -0.437313 -0.332524 -23.2701 -0.297074 -0.462089 -3.25749 -0.297093 -0.4621 90.0389 -30.1393 -106.629 40.5501 0.218068 6.20519 1.18433 -13.1932 -15.2625 -25.3178 0.133069 -8.87496 -86.866 -50.3917 83.4915 -25.7063 7.75299 1.47796 1.33042 9.5227 -7.24066 -2.81557 -0.0834487 -6.19982 -0.988206 10.8693 6.18091 -2.56145 9.91993 6.66166 
-5.49903 101.057 16.2103 97.3655 33.4599 86.325 -177.173 -3.35977 84.9144 -22.5491 30.2005 1.16292 73.3766 9.71838 0.994235 7.83399 -13.0791 2.82461 179.777 18.292 90.3356 -55.3962 -2.03899 -4.77094 69.6459 -5.76075 -2.85508 18.7547 2.64798 3.68409 -0.938769 8.16055 -90.4052 10.5477 -2.05586 -0.620737 -1.12169 -2.0812 -0.529616 -23.6663 -1.77427 -1.21007 -3.65368 -1.77424 -1.21006 91.0102 -29.3711 -104.976 45.2465 -0.458718 9.26993 2.23506 -14.7232 -15.146 -22.1707 0.3686 -11.2562 -88.3395 -49.1322 81.0534 -21.6023 8.87451 -10.5504 3.17052 10.7111 -12.2454 -1.32896 -0.123912 -8.24443 2.00801 7.41528 2.12867 -2.63351 6.95122 5.72233 
